<svg width="200" height="200" viewBox="0 0 200 200" fill="none" xmlns="http://www.w3.org/2000/svg">
  <rect width="200" height="200" rx="100" fill="#E2E8F0"/>
  <path d="M100 105C116.569 105 130 91.5685 130 75C130 58.4315 116.569 45 100 45C83.4315 45 70 58.4315 70 75C70 91.5685 83.4315 105 100 105Z" fill="#94A3B8"/>
  <path d="M155 165C155 137.386 130.376 115 100 115C69.6243 115 45 137.386 45 165V175C45 188.807 56.1929 200 70 200H130C143.807 200 155 188.807 155 175V165Z" fill="#94A3B8"/>
</svg>
